<?xml version="1.0" encoding="iso-8859-1"?>
<!-- Generator: Adobe Illustrator 19.0.0, SVG Export Plug-In . SVG Version: 6.00 Build 0)  -->
<svg version="1.1" id="Capa_1" xmlns="http://www.w3.org/2000/svg" xmlns:xlink="http://www.w3.org/1999/xlink" x="0px" y="0px"
	 viewBox="0 0 480.001 480.001" style="enable-background:new 0 0 480.001 480.001;" xml:space="preserve">
<linearGradient id="SVGID_1_" gradientUnits="userSpaceOnUse" x1="-58.165" y1="587.6254" x2="29.045" y2="587.6254" gradientTransform="matrix(8 0 0 -8 455 4941.0034)">
	<stop  offset="0" style="stop-color:#E93E3A"/>
	<stop  offset="0.356" style="stop-color:#ED683C"/>
	<stop  offset="0.711" style="stop-color:#F3903F"/>
	<stop  offset="1" style="stop-color:#FDC70C"/>
</linearGradient>
<path style="fill:url(#SVGID_1_);" d="M472,0H112c-4.418,0-8,3.582-8,8v120h16V16h344v440c0.077,4.207-3.169,7.731-7.368,8
	c-0.688,0-1.376-0.056-2.064-0.072c-1.416-0.04-2.832-0.072-4.224-0.216c-0.12,0-0.232,0-0.352-0.048
	c-26.128-2.856-46.767-23.475-49.648-49.6c0-0.112-0.04-0.232-0.056-0.344c-0.194-1.901-0.29-3.81-0.288-5.72v-16
	c0-4.418-3.582-8-8-8H120V240h-16v144H40c-4.418,0-8,3.582-8,8v16c0.044,39.746,32.254,71.956,72,72h352.8
	c12.982-0.34,23.3-11.014,23.2-24V8C480,3.582,476.418,0,472,0z M104,464c-30.913-0.035-55.965-25.087-56-56v-8h336v8
	c0.011,2.638,0.163,5.274,0.456,7.896c0.072,0.696,0.208,1.368,0.304,2.056c0.264,1.936,0.584,3.864,1.008,5.76
	c0.144,0.664,0.328,1.32,0.496,1.984c0.488,1.928,1.04,3.824,1.68,5.696c0.184,0.536,0.376,1.064,0.576,1.6
	c0.728,1.984,1.552,3.92,2.456,5.832c0.192,0.392,0.368,0.8,0.56,1.16c1.003,2.027,2.104,3.997,3.304,5.912
	c0.16,0.256,0.304,0.52,0.464,0.8c1.304,2.043,2.712,4.019,4.216,5.92l0.256,0.344c1.746,2.193,3.616,4.284,5.6,6.264
	c1.723,1.707,3.509,3.307,5.36,4.8L104,464z"/>
<g>
	
		<linearGradient id="SVGID_2_" gradientUnits="userSpaceOnUse" x1="-58.165" y1="594.6254" x2="29.045" y2="594.6254" gradientTransform="matrix(8 0 0 -8 455 4941.0034)">
		<stop  offset="0" style="stop-color:#E93E3A"/>
		<stop  offset="0.356" style="stop-color:#ED683C"/>
		<stop  offset="0.711" style="stop-color:#F3903F"/>
		<stop  offset="1" style="stop-color:#FDC70C"/>
	</linearGradient>
	<path style="fill:url(#SVGID_2_);" d="M264,224c2.122,0,4.156-0.844,5.656-2.344l32-32c3.123-3.124,3.123-8.188,0-11.312l-32-32
		c-1.5-1.5-3.534-2.344-5.656-2.344H40c-22.091,0-40,17.909-40,40s17.909,40,40,40L264,224z M241.76,176H80v16h161.76l4,16H64v-48
		h181.76L241.76,176z M284.688,184l-22.752,22.752L256.248,184l5.688-22.752L284.688,184z M16,184c0-13.255,10.745-24,24-24h8v48h-8
		C26.745,208,16,197.255,16,184z"/>
	
		<linearGradient id="SVGID_3_" gradientUnits="userSpaceOnUse" x1="-58.165" y1="590.6252" x2="29.045" y2="590.6252" gradientTransform="matrix(8 0 0 -8 455 4941.0034)">
		<stop  offset="0" style="stop-color:#E93E3A"/>
		<stop  offset="0.356" style="stop-color:#ED683C"/>
		<stop  offset="0.711" style="stop-color:#F3903F"/>
		<stop  offset="1" style="stop-color:#FDC70C"/>
	</linearGradient>
	<path style="fill:url(#SVGID_3_);" d="M184,344h240c4.418,0,8-3.582,8-8V96c-0.001-4.418-3.583-7.999-8.002-7.998
		c-2.121,0-4.154,0.843-5.654,2.342l-240,240c-3.124,3.125-3.123,8.19,0.002,11.314C179.845,343.157,181.879,344,184,344z
		 M416,115.312V136h-16v16h16v16h-16v16h16v16h-16v16h16v16h-16v16h16v16h-16v16h16v16h-16v16h16v16h-16v-16h-16v16h-16v-16h-16v16
		h-16v-16h-16v16h-16v-16h-16v16h-16v-16h-16v16h-16v-16h-16v16h-20.688L416,115.312z"/>
	
		<linearGradient id="SVGID_4_" gradientUnits="userSpaceOnUse" x1="-58.165" y1="586.3828" x2="29.045" y2="586.3828" gradientTransform="matrix(8 0 0 -8 455 4941.0034)">
		<stop  offset="0" style="stop-color:#E93E3A"/>
		<stop  offset="0.356" style="stop-color:#ED683C"/>
		<stop  offset="0.711" style="stop-color:#F3903F"/>
		<stop  offset="1" style="stop-color:#FDC70C"/>
	</linearGradient>
	<path style="fill:url(#SVGID_4_);" d="M299.88,296H376c4.418,0,8-3.582,8-8v-76.12c-0.001-4.418-3.583-7.999-8.002-7.998
		c-2.121,0-4.154,0.843-5.654,2.342l-76.12,76.12c-3.124,3.125-3.123,8.19,0.002,11.314C295.725,295.157,297.759,296,299.88,296z
		 M368,231.2V280h-48.8L368,231.2z"/>
	
		<linearGradient id="SVGID_5_" gradientUnits="userSpaceOnUse" x1="-58.165" y1="610.6254" x2="29.045" y2="610.6254" gradientTransform="matrix(8 0 0 -8 455 4941.0034)">
		<stop  offset="0" style="stop-color:#E93E3A"/>
		<stop  offset="0.356" style="stop-color:#ED683C"/>
		<stop  offset="0.711" style="stop-color:#F3903F"/>
		<stop  offset="1" style="stop-color:#FDC70C"/>
	</linearGradient>
	<path style="fill:url(#SVGID_5_);" d="M208,48h160v16H208V48z"/>
	
		<linearGradient id="SVGID_6_" gradientUnits="userSpaceOnUse" x1="-58.165" y1="606.6254" x2="29.045" y2="606.6254" gradientTransform="matrix(8 0 0 -8 455 4941.0034)">
		<stop  offset="0" style="stop-color:#E93E3A"/>
		<stop  offset="0.356" style="stop-color:#ED683C"/>
		<stop  offset="0.711" style="stop-color:#F3903F"/>
		<stop  offset="1" style="stop-color:#FDC70C"/>
	</linearGradient>
	<path style="fill:url(#SVGID_6_);" d="M184,80h208v16H184V80z"/>
	
		<linearGradient id="SVGID_7_" gradientUnits="userSpaceOnUse" x1="-58.165" y1="585.6254" x2="29.045" y2="585.6254" gradientTransform="matrix(8 0 0 -8 455 4941.0034)">
		<stop  offset="0" style="stop-color:#E93E3A"/>
		<stop  offset="0.356" style="stop-color:#ED683C"/>
		<stop  offset="0.711" style="stop-color:#F3903F"/>
		<stop  offset="1" style="stop-color:#FDC70C"/>
	</linearGradient>
	<path style="fill:url(#SVGID_7_);" d="M136,248h48v16h-48V248z"/>
	
		<linearGradient id="SVGID_8_" gradientUnits="userSpaceOnUse" x1="-58.165" y1="581.6254" x2="29.045" y2="581.6254" gradientTransform="matrix(8 0 0 -8 455 4941.0034)">
		<stop  offset="0" style="stop-color:#E93E3A"/>
		<stop  offset="0.356" style="stop-color:#ED683C"/>
		<stop  offset="0.711" style="stop-color:#F3903F"/>
		<stop  offset="1" style="stop-color:#FDC70C"/>
	</linearGradient>
	<path style="fill:url(#SVGID_8_);" d="M136,280h32v16h-32V280z"/>
</g>
<g>
</g>
<g>
</g>
<g>
</g>
<g>
</g>
<g>
</g>
<g>
</g>
<g>
</g>
<g>
</g>
<g>
</g>
<g>
</g>
<g>
</g>
<g>
</g>
<g>
</g>
<g>
</g>
<g>
</g>
</svg>
