<svg height="512" viewBox="0 0 512 512" width="512" xmlns="http://www.w3.org/2000/svg" xmlns:xlink="http://www.w3.org/1999/xlink"><linearGradient id="a" gradientUnits="userSpaceOnUse" x1="9.285" x2="501.315" y1="494.715" y2="2.685" data-name="New Gradient Swatch 1"><stop offset="0" stop-color="#003f8a"/><stop offset=".518" stop-color="#00d7df"/><stop offset="1" stop-color="#006df0"/></linearGradient><linearGradient id="b" x1="-22.715" x2="469.315" xlink:href="#a" y1="462.715" y2="-29.315"/><linearGradient id="c" x1="3.285" x2="495.315" xlink:href="#a" y1="488.715" y2="-3.315"/><g><path d="m476 48h-440a28.031 28.031 0 0 0 -28 28v296a28.031 28.031 0 0 0 28 28h154.56l-5.34 32h-33.22a8 8 0 0 0 -8 8v24a8 8 0 0 0 8 8h208a7.871 7.871 0 0 0 1.38-.13c.86.08 1.74.13 2.62.13h88a28.031 28.031 0 0 0 28-28v-44.29a28.043 28.043 0 0 0 24-27.71v-296a28.031 28.031 0 0 0 -28-28zm-440 336a12.01 12.01 0 0 1 -12-12v-20h312v32zm300 16v32h-9.22l-5.34-32zm-25.44 32h-109.12l5.34-32h98.44zm-150.56 24v-8h176.29a27.807 27.807 0 0 0 2.42 8zm304-12a12.01 12.01 0 0 1 -12 12h-88a12.01 12.01 0 0 1 -12-12v-168a12.01 12.01 0 0 1 12-12h14.23l6.18 18.53a8 8 0 0 0 7.59 5.47h32a8 8 0 0 0 7.59-5.47l6.18-18.53h14.23a12.01 12.01 0 0 1 12 12zm-68.9-180h25.8l-2.67 8h-20.46zm92.9 108a12.014 12.014 0 0 1 -8 11.3v-31.3h8zm0-36h-8v-60a28.031 28.031 0 0 0 -28-28h-88a28.031 28.031 0 0 0 -28 28v60h-312v-260a12.01 12.01 0 0 1 12-12h440a12.01 12.01 0 0 1 12 12z" fill="url(#a)"/><path d="m96 360h-48a8 8 0 0 0 0 16h48a8 8 0 0 0 0-16z" fill="url(#b)"/><path d="m128 360h-8a8 8 0 0 0 0 16h8a8 8 0 0 0 0-16z" fill="url(#c)"/></g></svg>