<svg height="512" viewBox="0 0 512 512" width="512" xmlns="http://www.w3.org/2000/svg" xmlns:xlink="http://www.w3.org/1999/xlink"><linearGradient id="a" gradientUnits="userSpaceOnUse" x1="16.874" x2="505.803" y1="505.355" y2="16.426" data-name="New Gradient Swatch 1"><stop offset="0" stop-color="#003f8a"/><stop offset=".518" stop-color="#00d7df"/><stop offset="1" stop-color="#006df0"/></linearGradient><linearGradient id="b" x1="-102.241" x2="386.688" xlink:href="#a" y1="386.241" y2="-102.688"/><linearGradient id="d" x1="85.759" x2="574.688" xlink:href="#a" y1="574.241" y2="85.312"/><linearGradient id="e" x1="-8.241" x2="480.688" xlink:href="#a" y1="480.241" y2="-8.688"/><linearGradient id="g" x1="-141.177" x2="347.752" xlink:href="#a" y1="347.304" y2="-141.624"/><linearGradient id="h" x1="124.696" x2="613.624" xlink:href="#a" y1="613.177" y2="124.248"/><g><path d="m256 64c-83.81 0-152 68.19-152 152a150.6 150.6 0 0 0 31.12 92.16 153.187 153.187 0 0 0 72.88 52.1v23.74h-16a8 8 0 0 0 -8 8v24a8 8 0 0 0 8 8v28a28.031 28.031 0 0 0 28 28h4v16a8 8 0 0 0 8 8h48a8 8 0 0 0 8-8v-16h4a28.031 28.031 0 0 0 28-28v-28a8 8 0 0 0 8-8v-24a8 8 0 0 0 -8-8h-16v-23.74a153.187 153.187 0 0 0 72.88-52.1 150.6 150.6 0 0 0 31.12-92.16c0-83.81-68.19-152-152-152zm16 424h-32v-8h32zm32-36a12.01 12.01 0 0 1 -12 12h-72a12.01 12.01 0 0 1 -12-12v-28h96zm8-52v8h-112v-8zm-64-104.4c2.63.26 5.3.4 8 .4s5.37-.14 8-.4v88.4h-16zm-56-79.6a64 64 0 1 1 64 64 64.072 64.072 0 0 1 -64-64zm172.17 82.45a136.929 136.929 0 0 1 -70.39 48.23 8.013 8.013 0 0 0 -5.78 7.69v29.63h-8v-91.68a80 80 0 1 0 -48 0v91.68h-8v-29.63a8.013 8.013 0 0 0 -5.78-7.69 136.929 136.929 0 0 1 -70.39-48.23 134.74 134.74 0 0 1 -27.83-82.45c0-74.99 61.01-136 136-136s136 61.01 136 136a134.74 134.74 0 0 1 -27.83 82.45z" fill="url(#a)"/><path d="m256 48a8 8 0 0 0 8-8v-24a8 8 0 0 0 -16 0v24a8 8 0 0 0 8 8z" fill="url(#b)"/><path d="m80 208h-24a8 8 0 0 0 0 16h24a8 8 0 0 0 0-16z" fill="url(#b)"/><path d="m456 208h-24a8 8 0 0 0 0 16h24a8 8 0 0 0 0-16z" fill="url(#d)"/><path d="m125.893 334.794-16.971 16.97a8 8 0 1 0 11.313 11.314l16.971-16.97a8 8 0 1 0 -11.313-11.314z" fill="url(#e)"/><path d="m380.451 99.549a7.974 7.974 0 0 0 5.656-2.343l16.971-16.97a8 8 0 1 0 -11.313-11.314l-16.971 16.97a8 8 0 0 0 5.657 13.657z" fill="url(#e)"/><path d="m125.893 97.206a8 8 0 1 0 11.313-11.314l-16.971-16.97a8 8 0 1 0 -11.313 11.314z" fill="url(#g)"/><path d="m386.107 334.794a8 8 0 1 0 -11.313 11.314l16.971 16.97a8 8 0 1 0 11.313-11.314z" fill="url(#h)"/><path d="m272 200a8 8 0 0 0 0-16h-8a8 8 0 0 0 -16 0h-8a8 8 0 0 0 -8 8v24a8 8 0 0 0 8 8h24v8h-24a8 8 0 0 0 0 16h8a8 8 0 0 0 16 0h8a8 8 0 0 0 8-8v-24a8 8 0 0 0 -8-8h-24v-8z" fill="url(#e)"/></g></svg>