<svg height="512" viewBox="0 0 512 512" width="512" xmlns="http://www.w3.org/2000/svg" xmlns:xlink="http://www.w3.org/1999/xlink"><linearGradient id="a" gradientUnits="userSpaceOnUse" x1="18.91" x2="499.473" y1="519.164" y2="38.601" data-name="New Gradient Swatch 1"><stop offset="0" stop-color="#003f8a"/><stop offset=".518" stop-color="#00d7df"/><stop offset="1" stop-color="#006df0"/></linearGradient><path d="m448 385.01v-57.01a8 8 0 0 0 -8-8h-176v-40h120a120 120 0 0 0 0-240 120.523 120.523 0 0 0 -48.86 10.37 127.541 127.541 0 0 0 -95.14-42.37c-66.38 0-121.27 50.98-127.42 115.84a80.021 80.021 0 1 0 -24.58 156.16h160v40h-176a8 8 0 0 0 -8 8v57.01a32 32 0 1 0 16 0v-49.01h168v104a8.258 8.258 0 0 0 .07 1 32 32 0 1 0 15.86 0 8.258 8.258 0 0 0 .07-1v-104h168v49.01a32 32 0 1 0 16 0zm-360 30.99a16 16 0 1 1 -16-16 16.021 16.021 0 0 1 16 16zm184 56a16 16 0 1 1 -16-16 16.021 16.021 0 0 1 16 16zm-184-208a64 64 0 1 1 28.44-121.34 8 8 0 0 0 11.57-7.13c.24-61.5 50.48-111.53 111.99-111.53a111.627 111.627 0 0 1 86.85 41.29 8 8 0 0 0 9.84 2.06 102.911 102.911 0 0 1 47.31-11.35 104 104 0 1 1 0 208zm352 168a16 16 0 1 1 16-16 16.021 16.021 0 0 1 -16 16z" fill="url(#a)"/></svg>