<?xml version="1.0" encoding="iso-8859-1"?>
<!-- Generator: Adobe Illustrator 19.0.0, SVG Export Plug-In . SVG Version: 6.00 Build 0)  -->
<svg version="1.1" id="Capa_1" xmlns="http://www.w3.org/2000/svg" xmlns:xlink="http://www.w3.org/1999/xlink" x="0px" y="0px"
	 viewBox="0 0 512 512" style="enable-background:new 0 0 512 512;" xml:space="preserve">
<linearGradient id="SVGID_1_" gradientUnits="userSpaceOnUse" x1="-41.095" y1="573.4059" x2="25.824" y2="640.3229" gradientTransform="matrix(8 0 0 -8 343 5085)">
	<stop  offset="0" style="stop-color:#003F8A"/>
	<stop  offset="0.518" style="stop-color:#00D7DF"/>
	<stop  offset="1" style="stop-color:#006DF0"/>
</linearGradient>
<path style="fill:url(#SVGID_1_);" d="M360,0H152c-22.08,0.026-39.974,17.92-40,40v432c0.026,22.08,17.92,39.974,40,40h208
	c22.08-0.026,39.974-17.92,40-40V40C399.974,17.92,382.08,0.026,360,0z M128,72h256v328H128V72z M152,16h208
	c13.255,0,24,10.745,24,24v16H128V40C128,26.745,138.745,16,152,16z M360,496H152c-13.255,0-24-10.745-24-24v-56h256v56
	C384,485.255,373.255,496,360,496z"/>
<linearGradient id="SVGID_2_" gradientUnits="userSpaceOnUse" x1="-28.5948" y1="560.9058" x2="38.3242" y2="627.8228" gradientTransform="matrix(8 0 0 -8 343 5085)">
	<stop  offset="0" style="stop-color:#003F8A"/>
	<stop  offset="0.518" style="stop-color:#00D7DF"/>
	<stop  offset="1" style="stop-color:#006DF0"/>
</linearGradient>
<path style="fill:url(#SVGID_2_);" d="M256,424c-17.673,0-32,14.327-32,32s14.327,32,32,32s32-14.327,32-32S273.673,424,256,424z
	 M256,472c-8.837,0-16-7.163-16-16s7.163-16,16-16c8.837,0,16,7.163,16,16S264.837,472,256,472z"/>
<linearGradient id="SVGID_3_" gradientUnits="userSpaceOnUse" x1="-42.5423" y1="574.8543" x2="24.3717" y2="641.7703" gradientTransform="matrix(8 0 0 -8 343 5085)">
	<stop  offset="0" style="stop-color:#003F8A"/>
	<stop  offset="0.518" style="stop-color:#00D7DF"/>
	<stop  offset="1" style="stop-color:#006DF0"/>
</linearGradient>
<path style="fill:url(#SVGID_3_);" d="M270.56,145.32c37.95,6.985,65.486,40.093,65.44,78.68c0,4.418,3.582,8,8,8s8-3.582,8-8
	c0.041-46.307-33.016-86.029-78.56-94.4c-4.36-0.717-8.475,2.237-9.191,6.597c-0.698,4.248,2.091,8.288,6.311,9.139V145.32z"/>
<linearGradient id="SVGID_4_" gradientUnits="userSpaceOnUse" x1="-42.8099" y1="575.1239" x2="24.1071" y2="642.0379" gradientTransform="matrix(8 0 0 -8 343 5085)">
	<stop  offset="0" style="stop-color:#003F8A"/>
	<stop  offset="0.518" style="stop-color:#00D7DF"/>
	<stop  offset="1" style="stop-color:#006DF0"/>
</linearGradient>
<path style="fill:url(#SVGID_4_);" d="M241.44,302.68c-30.018-5.62-54.252-27.779-62.528-57.176
	c-1.042-4.294-5.368-6.929-9.662-5.887c-4.294,1.042-6.929,5.368-5.887,9.662c0.041,0.17,0.088,0.338,0.14,0.505
	c9.932,35.285,39.023,61.881,75.056,68.616c0.478,0.088,0.962,0.134,1.448,0.136c4.418,0.004,8.003-3.575,8.007-7.993
	c0.003-3.871-2.766-7.189-6.575-7.879V302.68z"/>
<linearGradient id="SVGID_5_" gradientUnits="userSpaceOnUse" x1="-51.0943" y1="583.4053" x2="15.8217" y2="650.3223" gradientTransform="matrix(8 0 0 -8 343 5085)">
	<stop  offset="0" style="stop-color:#003F8A"/>
	<stop  offset="0.518" style="stop-color:#00D7DF"/>
	<stop  offset="1" style="stop-color:#006DF0"/>
</linearGradient>
<path style="fill:url(#SVGID_5_);" d="M240,120h-96c-4.418,0-8,3.582-8,8v64c0,4.418,3.582,8,8,8h16v16c0,4.418,3.582,8,8,8h48
	c4.418,0,8-3.582,8-8v-16h16c4.418,0,8-3.582,8-8v-64C248,123.582,244.418,120,240,120z M208,208h-32v-8h32V208z M232,184h-80v-48
	h80V184z"/>
<linearGradient id="SVGID_6_" gradientUnits="userSpaceOnUse" x1="-35.095" y1="567.4059" x2="31.824" y2="634.3229" gradientTransform="matrix(8 0 0 -8 343 5085)">
	<stop  offset="0" style="stop-color:#003F8A"/>
	<stop  offset="0.518" style="stop-color:#00D7DF"/>
	<stop  offset="1" style="stop-color:#006DF0"/>
</linearGradient>
<path style="fill:url(#SVGID_6_);" d="M368,248h-96c-4.418,0-8,3.582-8,8v64c0,4.418,3.582,8,8,8h16v16c0,4.418,3.582,8,8,8h48
	c4.418,0,8-3.582,8-8v-16h16c4.418,0,8-3.582,8-8v-64C376,251.582,372.418,248,368,248z M336,336h-32v-8h32V336z M360,312h-80v-48
	h80V312z"/>
<linearGradient id="SVGID_7_" gradientUnits="userSpaceOnUse" x1="-33.3442" y1="565.6563" x2="33.5748" y2="632.5722" gradientTransform="matrix(8 0 0 -8 343 5085)">
	<stop  offset="0" style="stop-color:#003F8A"/>
	<stop  offset="0.518" style="stop-color:#00D7DF"/>
	<stop  offset="1" style="stop-color:#006DF0"/>
</linearGradient>
<path style="fill:url(#SVGID_7_);" d="M160,472h-8c-4.418,0-8,3.582-8,8s3.582,8,8,8h8c4.418,0,8-3.582,8-8S164.418,472,160,472z"/>
<linearGradient id="SVGID_8_" gradientUnits="userSpaceOnUse" x1="-48.3451" y1="580.6571" x2="18.5739" y2="647.5731" gradientTransform="matrix(8 0 0 -8 343 5085)">
	<stop  offset="0" style="stop-color:#003F8A"/>
	<stop  offset="0.518" style="stop-color:#00D7DF"/>
	<stop  offset="1" style="stop-color:#006DF0"/>
</linearGradient>
<path style="fill:url(#SVGID_8_);" d="M352,48h8c4.418,0,8-3.582,8-8s-3.582-8-8-8h-8c-4.418,0-8,3.582-8,8S347.582,48,352,48z"/>
<linearGradient id="SVGID_9_" gradientUnits="userSpaceOnUse" x1="-21.2405" y1="553.5545" x2="45.6755" y2="620.4645" gradientTransform="matrix(8 0 0 -8 343 5085)">
	<stop  offset="0" style="stop-color:#003F8A"/>
	<stop  offset="0.518" style="stop-color:#00D7DF"/>
	<stop  offset="1" style="stop-color:#006DF0"/>
</linearGradient>
<path style="fill:url(#SVGID_9_);" d="M368,440c-4.418,0-8,3.582-8,8v24h-24c-4.418,0-8,3.582-8,8s3.582,8,8,8h24
	c8.837,0,16-7.163,16-16v-24C376,443.582,372.418,440,368,440z"/>
<g>
</g>
<g>
</g>
<g>
</g>
<g>
</g>
<g>
</g>
<g>
</g>
<g>
</g>
<g>
</g>
<g>
</g>
<g>
</g>
<g>
</g>
<g>
</g>
<g>
</g>
<g>
</g>
<g>
</g>
</svg>
