<?xml version="1.0" encoding="UTF-8"?>
<svg xmlns="http://www.w3.org/2000/svg" xmlns:xlink="http://www.w3.org/1999/xlink" width="512" height="512" viewBox="0 0 512 512"><defs><linearGradient id="a" data-name="New Gradient Swatch 1" x1="16.828" y1="495.172" x2="523.88" y2="-11.88" gradientUnits="userSpaceOnUse"><stop offset="0" stop-color="#003f8a"/><stop offset="0.518" stop-color="#00d7df"/><stop offset="1" stop-color="#006df0"/></linearGradient><linearGradient id="b" x1="16.828" y1="495.172" x2="523.88" y2="-11.88" xlink:href="#a"/></defs><g><path d="M496,216H451.98a200.568,200.568,0,0,0-29.12-70.29l31.13-31.13a8.015,8.015,0,0,0,0-11.32L408.74,58.01a8.015,8.015,0,0,0-11.32,0L366.29,89.14A200.568,200.568,0,0,0,296,60.02V16a8,8,0,0,0-8-8H224a8,8,0,0,0-8,8V60.02a200.568,200.568,0,0,0-70.29,29.12L114.58,58.01a8.015,8.015,0,0,0-11.32,0L58.01,103.26a8.015,8.015,0,0,0,0,11.32l31.13,31.13A200.568,200.568,0,0,0,60.02,216H16a8,8,0,0,0-8,8v64a8,8,0,0,0,8,8H60.02a200.568,200.568,0,0,0,29.12,70.29L58.01,397.42a8.015,8.015,0,0,0,0,11.32l45.25,45.25a8.015,8.015,0,0,0,11.32,0l31.13-31.13A200.568,200.568,0,0,0,216,451.98V496a8,8,0,0,0,8,8h64a8,8,0,0,0,8-8V451.98a200.568,200.568,0,0,0,70.29-29.12l31.13,31.13a8.015,8.015,0,0,0,11.32,0l45.25-45.25a8.015,8.015,0,0,0,0-11.32l-31.13-31.13A200.568,200.568,0,0,0,451.98,296H496a8,8,0,0,0,8-8V224A8,8,0,0,0,496,216Zm-8,64H445.33a8,8,0,0,0-7.89,6.68,184.285,184.285,0,0,1-31.45,75.93,7.99,7.99,0,0,0,.86,10.3l30.17,30.17-33.94,33.94-30.17-30.17a8,8,0,0,0-10.3-.86,184.285,184.285,0,0,1-75.93,31.45,8,8,0,0,0-6.68,7.89V488H232V445.33a8,8,0,0,0-6.68-7.89,184.285,184.285,0,0,1-75.93-31.45,8,8,0,0,0-10.3.86l-30.17,30.17L74.98,403.08l30.17-30.17a7.99,7.99,0,0,0,.86-10.3,184.285,184.285,0,0,1-31.45-75.93A8,8,0,0,0,66.67,280H24V232H66.67a8,8,0,0,0,7.89-6.68,184.285,184.285,0,0,1,31.45-75.93,7.99,7.99,0,0,0-.86-10.3L74.98,108.92l33.94-33.94,30.17,30.17a8,8,0,0,0,10.3.86,184.285,184.285,0,0,1,75.93-31.45A8,8,0,0,0,232,66.67V24h48V66.67a8,8,0,0,0,6.68,7.89,184.285,184.285,0,0,1,75.93,31.45,8,8,0,0,0,10.3-.86l30.17-30.17,33.94,33.94-30.17,30.17a7.99,7.99,0,0,0-.86,10.3,184.285,184.285,0,0,1,31.45,75.93,8,8,0,0,0,7.89,6.68H488Z" fill="url(#a)"/><path d="M256,96C167.78,96,96,167.78,96,256s71.78,160,160,160,160-71.78,160-160S344.22,96,256,96Zm0,304c-79.4,0-144-64.6-144-144s64.6-144,144-144,144,64.6,144,144S335.4,400,256,400Z" fill="url(#b)"/><path d="M256,128A128,128,0,1,0,384,256,128.144,128.144,0,0,0,256,128Zm-36.62,22.15a106.409,106.409,0,0,0-10.23,17.61c-10.16,21.79-16.12,50.04-17.02,80.24H144.29A112.25,112.25,0,0,1,219.38,150.15ZM144.29,264h47.84c.9,30.2,6.86,58.45,17.02,80.24a106.409,106.409,0,0,0,10.23,17.61A112.25,112.25,0,0,1,144.29,264ZM248,366.24c-8.82-3.84-17.39-13.86-24.35-28.77-9.21-19.75-14.63-45.6-15.51-73.47H248ZM248,248H208.14c.88-27.87,6.3-53.72,15.51-73.47,6.96-14.91,15.53-24.92,24.35-28.77Zm119.71,0H319.87c-.9-30.2-6.86-58.45-17.02-80.24a106.409,106.409,0,0,0-10.23-17.61A112.25,112.25,0,0,1,367.71,248ZM264,145.76c8.82,3.85,17.39,13.86,24.35,28.77,9.21,19.75,14.63,45.6,15.51,73.47H264Zm0,220.48V264h39.86c-.88,27.87-6.3,53.72-15.51,73.47C281.39,352.38,272.82,362.4,264,366.24Zm28.62-4.39a106.409,106.409,0,0,0,10.23-17.61c10.16-21.79,16.12-50.04,17.02-80.24h47.84A112.25,112.25,0,0,1,292.62,361.85Z" fill="url(#b)"/></g></svg>
