<svg enable-background="new 0 0 64 64" height="64" viewBox="0 0 64 64" width="64" xmlns="http://www.w3.org/2000/svg" xmlns:xlink="http://www.w3.org/1999/xlink"><linearGradient id="a" gradientTransform="matrix(512 0 0 -512 179872 139068.2812)" gradientUnits="userSpaceOnUse" x1="-351.3125" x2="-351.1903" y1="271.6177" y2="271.4955"><stop offset="0" stop-color="#0187f3"/><stop offset="1" stop-color="#ff004f"/></linearGradient><circle clip-rule="evenodd" cx="32" cy="32" fill="url(#a)" fill-rule="evenodd" r="32"/><path d="m-65.4-106.7c-3.1.2-8.8.7-11.4 2.1-3.3 1.9-6.6 5.3-9.2 8.7l-5.3.6c-1 .1-1.9.7-2.3 1.6l-1.2 2.7c-.1.2-.1.5 0 .7s.3.3.6.4l3.6.6c-.3.4-.5.8-.7 1.1-.5.8-.3 1.8.4 2.4l.2.2-.9.8c-.4.4-.6.9-.6 1.4 0 .6.2 1.1.6 1.4l1.9 1.8c.4.4 1 .6 1.6.6s1.1-.2 1.6-.6l.9-.8.2.2c.4.4 1 .6 1.5.6.4 0 .7-.1 1.1-.3.3-.2.7-.4 1.2-.6l.6 3.3c0 .2.2.4.4.5s.5.1.7 0l2.8-1.1c.9-.4 1.6-1.2 1.7-2.2l.7-4.9c3.6-2.5 7.3-5.5 9.3-8.6 1.5-2.4 2.1-7.7 2.3-10.6 0-.6-.2-1.1-.6-1.5-.5-.4-1.1-.6-1.7-.5zm-1.4 11.9c-3.7 5.7-13.9 11.4-16.9 13-.2.1-.5.1-.7-.1l-.8-.7-3.9-3.7-.8-.7c-.2-.2-.2-.4-.1-.6 1.7-2.8 7.8-12.3 13.9-15.8 2.4-1.3 8.2-1.8 10.7-1.9.2 0 .3.1.4.2s.2.2.2.4c-.1 2.3-.6 7.7-2 9.9z" transform="translate(113 122)"/><g fill="#fff"><path clip-rule="evenodd" d="m-65.4-106.7c-3.1.2-8.8.7-11.4 2.1-3.3 1.9-6.6 5.3-9.2 8.7l-5.3.6c-1 .1-1.9.7-2.3 1.6l-1.2 2.7c-.1.2-.1.5 0 .7s.3.3.6.4l3.6.6c-.3.4-.5.8-.7 1.1-.5.8-.3 1.8.4 2.4l.2.2-.9.8c-.4.4-.6.9-.6 1.4 0 .6.2 1.1.6 1.4l1.9 1.8c.4.4 1 .6 1.6.6s1.1-.2 1.6-.6l.9-.8.2.2c.4.4 1 .6 1.5.6.4 0 .7-.1 1.1-.3.3-.2.7-.4 1.2-.6l.6 3.3c0 .2.2.4.4.5s.5.1.7 0l2.8-1.1c.9-.4 1.6-1.2 1.7-2.2l.7-4.9c3.6-2.5 7.3-5.5 9.3-8.6 1.5-2.4 2.1-7.7 2.3-10.6 0-.6-.2-1.1-.6-1.5-.5-.4-1.1-.6-1.7-.5zm-1.4 11.9c-3.7 5.7-13.9 11.4-16.9 13-.2.1-.5.1-.7-.1l-.8-.7-3.9-3.7-.8-.7c-.2-.2-.2-.4-.1-.6 1.7-2.8 7.8-12.3 13.9-15.8 2.4-1.3 8.2-1.8 10.7-1.9.2 0 .3.1.4.2s.2.2.2.4c-.1 2.3-.6 7.7-2 9.9z" fill-rule="evenodd" transform="translate(113 122)"/><path d="m39.9 21.2c-1 0-1.9.4-2.6 1s-1.1 1.5-1.1 2.5c0 .9.4 1.8 1.1 2.5s1.6 1 2.6 1 1.9-.4 2.6-1 1.1-1.5 1.1-2.5c0-.9-.4-1.8-1.1-2.5-.7-.6-1.6-1-2.6-1zm-21.1 19.1c-1.2 0-2.3.4-3.1 1.2-1.6 1.5-1.6 5.8-1.6 6.6 0 .4.4.7.8.7h.1c1.6 0 5.5-.1 6.9-1.5.8-.8 1.3-1.8 1.3-2.9s-.5-2.1-1.3-2.9-1.9-1.2-3.1-1.2zm2 6c-.7.6-3 1-5.1 1 .1-1.8.4-4.1 1.1-4.8.5-.5 1.3-.8 2-.8.8 0 1.5.3 2 .8s.8 1.2.8 1.9c.1.8-.2 1.4-.8 1.9z"/></g></svg>