<svg enable-background="new 0 0 120 60" height="60" viewBox="0 0 120 60" width="120" xmlns="http://www.w3.org/2000/svg" xmlns:xlink="http://www.w3.org/1999/xlink"><linearGradient id="a" gradientTransform="matrix(512 0 0 -512 179872 139068.28)" gradientUnits="userSpaceOnUse" x1="-351.3125" x2="-351.19031" y1="271.61771" y2="271.49551"><stop offset="0" stop-color="#0187f3"/><stop offset="1" stop-color="#ff004f"/></linearGradient><path clip-rule="evenodd" d="m12 30c0-1.2.2-2.2.5-3.1s.7-1.7 1.3-2.4c.5-.6 1.1-1.1 1.8-1.5.7-.3 1.4-.5 2.1-.5s1.4.1 1.8.4c.5.3.9.6 1.3 1l-.2-2.1v-4.6h4.7v19.9h-3.8l-.3-1.3h-.2c-.5.5-1 .9-1.6 1.2s-1.2.5-1.8.5c-.9 0-1.6-.2-2.3-.5-.7-.4-1.3-.9-1.8-1.5s-.9-1.4-1.1-2.4c-.3-.9-.4-1.9-.4-3.1zm4.8-.1c0 1.3.2 2.2.5 2.7.4.5.9.8 1.5.8.4 0 .7-.1 1-.2s.5-.4.8-.8v-5.3c-.3-.3-.6-.4-.9-.5s-.6-.1-1-.1c-.5 0-.9.3-1.3.8s-.6 1.4-.6 2.6zm9 .1c0-1.2.2-2.2.6-3.1s.9-1.7 1.5-2.4c.6-.6 1.3-1.1 2.1-1.5.8-.3 1.6-.5 2.4-.5 1 0 1.9.2 2.6.5s1.4.9 1.9 1.5.9 1.4 1.1 2.2.4 1.7.4 2.7c0 .4 0 .8-.1 1.2 0 .3-.1.6-.1.8h-7.8c.2.9.6 1.5 1.2 1.9.6.3 1.2.5 2 .5.5 0 .9-.1 1.4-.2.5-.2 1-.4 1.4-.6l1.5 2.9c-.7.6-1.6 1-2.5 1.2-.9.3-1.7.4-2.5.4-1 0-1.9-.2-2.8-.5-.8-.3-1.6-.8-2.2-1.5-.6-.6-1.1-1.4-1.5-2.4-.4-.9-.6-1.9-.6-3.1zm8.5-1.6c0-.6-.1-1.1-.4-1.5s-.8-.6-1.5-.6c-.5 0-1 .2-1.4.5s-.7.9-.8 1.7h4.1zm9.4 9.8v3.9h-4.7v-19.3h3.8l.3 1.3h.1c.5-.5 1.1-.9 1.7-1.2s1.3-.5 2-.5c.8 0 1.5.2 2.2.5.7.4 1.2.8 1.7 1.5.5.6.8 1.4 1.1 2.3.2.9.4 1.9.4 3 0 1.2-.2 2.3-.5 3.3s-.7 1.8-1.3 2.4-1.1 1.2-1.8 1.5-1.4.5-2.1.5c-1.1 0-2.2-.5-3.1-1.4zm0-5.4c.3.3.6.4.8.5.3.1.6.1.9.1.5 0 1-.3 1.4-.8s.6-1.5.6-2.9c0-1.2-.2-2-.5-2.5s-.8-.8-1.4-.8c-.4 0-.7.1-1 .2-.3.2-.6.4-.9.8zm9.2-15.6h4.7v15c0 .5.1.8.3 1s.3.3.5.3h.2c.1 0 .2 0 .3-.1l.5 3.6c-.3.1-.6.2-.9.3-.4.1-.9.1-1.4.1-.8 0-1.5-.1-2-.4-.5-.2-1-.6-1.3-1.1s-.6-1-.7-1.7-.2-1.5-.2-2.2zm5.5 12.8c0-1.2.2-2.2.6-3.2.4-.9.9-1.7 1.5-2.4.6-.6 1.4-1.1 2.2-1.5 1.6-.7 3.4-.7 5.1 0 .8.3 1.5.8 2.2 1.5.6.6 1.1 1.4 1.5 2.4.4.9.6 2 .6 3.2s-.2 2.2-.6 3.2c-.4.9-.9 1.7-1.5 2.4-.6.6-1.3 1.1-2.2 1.5-1.6.7-3.4.7-5.1 0-.8-.3-1.6-.8-2.2-1.5-.6-.6-1.1-1.4-1.5-2.4s-.6-2-.6-3.2zm4.8 0c0 1.1.1 2 .5 2.6.3.6.8 1 1.5 1s1.2-.3 1.5-1c.3-.6.5-1.5.5-2.6s-.1-2-.5-2.6c-.3-.6-.8-1-1.5-1s-1.2.3-1.5 1c-.3.6-.5 1.5-.5 2.6zm9.8 8.5c.1 0 .3.1.4.1.2 0 .3.1.5.1.6 0 1.1-.1 1.4-.4s.6-.6.7-1l.2-.6-5.2-13.9h4.7l1.6 5.5c.2.7.4 1.3.5 2s.3 1.3.5 2.1h.1c.1-.7.3-1.4.4-2 .1-.7.3-1.3.5-2l1.4-5.5h4.5l-4.6 14.1c-.3.9-.7 1.7-1.1 2.5-.4.7-.8 1.3-1.3 1.7-.5.5-1.1.8-1.7 1s-1.4.3-2.2.3c-.5 0-.9 0-1.2-.1s-.6-.1-.9-.2c0 0 .8-3.7.8-3.7zm13.2-22h.8v9.2c.6-.7 1.4-1.3 2.1-1.8s1.5-.7 2.4-.7c1.4 0 2.3.4 3 1.3.6.8 1 2.2 1 3.9v8.8h-.8v-8.7c0-1.5-.2-2.7-.7-3.4s-1.3-1.1-2.4-1.1c-.8 0-1.6.2-2.3.7s-1.4 1.1-2.3 2.1v10.5h-.8zm11.2 13.8c0-1.1.2-2.1.5-3s.7-1.6 1.3-2.3c.5-.6 1.1-1.1 1.9-1.4.7-.3 1.5-.5 2.3-.5s1.5.1 2.1.4c.7.3 1.3.7 1.8 1.2h.1l.1-1.3h.7v20h-.8v-5.4l.1-2.7c-.6.6-1.3 1.1-2 1.5s-1.6.7-2.5.7c-1.7 0-3-.6-4-1.8-1.2-1.3-1.6-3-1.6-5.4zm.8 0c0 1 .1 1.8.3 2.6s.5 1.4.9 2 .9 1 1.4 1.3c.6.3 1.2.5 2 .5s1.5-.2 2.2-.6 1.4-1 2.2-1.8v-8.5c-.7-.7-1.4-1.2-2.1-1.5-.6-.3-1.3-.4-2-.4s-1.3.2-1.9.5-1.1.8-1.6 1.4-.8 1.3-1 2c-.2.9-.4 1.7-.4 2.5z" fill="url(#a)" fill-rule="evenodd" transform="matrix(.77424399 0 0 .77424399 28.915969 7.177122)"/><g transform="matrix(.4450431 0 0 .4450431 5.642026 15.91304)"><circle clip-rule="evenodd" cx="32" cy="32" fill="url(#a)" fill-rule="evenodd" r="32"/><path d="m-65.4-106.7c-3.1.2-8.8.7-11.4 2.1-3.3 1.9-6.6 5.3-9.2 8.7l-5.3.6c-1 .1-1.9.7-2.3 1.6l-1.2 2.7c-.1.2-.1.5 0 .7s.3.3.6.4l3.6.6c-.3.4-.5.8-.7 1.1-.5.8-.3 1.8.4 2.4l.2.2-.9.8c-.4.4-.6.9-.6 1.4 0 .6.2 1.1.6 1.4l1.9 1.8c.4.4 1 .6 1.6.6s1.1-.2 1.6-.6l.9-.8.2.2c.4.4 1 .6 1.5.6.4 0 .7-.1 1.1-.3.3-.2.7-.4 1.2-.6l.6 3.3c0 .2.2.4.4.5s.5.1.7 0l2.8-1.1c.9-.4 1.6-1.2 1.7-2.2l.7-4.9c3.6-2.5 7.3-5.5 9.3-8.6 1.5-2.4 2.1-7.7 2.3-10.6 0-.6-.2-1.1-.6-1.5-.5-.4-1.1-.6-1.7-.5zm-1.4 11.9c-3.7 5.7-13.9 11.4-16.9 13-.2.1-.5.1-.7-.1l-.8-.7-3.9-3.7-.8-.7c-.2-.2-.2-.4-.1-.6 1.7-2.8 7.8-12.3 13.9-15.8 2.4-1.3 8.2-1.8 10.7-1.9.2 0 .3.1.4.2s.2.2.2.4c-.1 2.3-.6 7.7-2 9.9z" transform="translate(113 122)"/><g fill="#fff"><path clip-rule="evenodd" d="m-65.4-106.7c-3.1.2-8.8.7-11.4 2.1-3.3 1.9-6.6 5.3-9.2 8.7l-5.3.6c-1 .1-1.9.7-2.3 1.6l-1.2 2.7c-.1.2-.1.5 0 .7s.3.3.6.4l3.6.6c-.3.4-.5.8-.7 1.1-.5.8-.3 1.8.4 2.4l.2.2-.9.8c-.4.4-.6.9-.6 1.4 0 .6.2 1.1.6 1.4l1.9 1.8c.4.4 1 .6 1.6.6s1.1-.2 1.6-.6l.9-.8.2.2c.4.4 1 .6 1.5.6.4 0 .7-.1 1.1-.3.3-.2.7-.4 1.2-.6l.6 3.3c0 .2.2.4.4.5s.5.1.7 0l2.8-1.1c.9-.4 1.6-1.2 1.7-2.2l.7-4.9c3.6-2.5 7.3-5.5 9.3-8.6 1.5-2.4 2.1-7.7 2.3-10.6 0-.6-.2-1.1-.6-1.5-.5-.4-1.1-.6-1.7-.5zm-1.4 11.9c-3.7 5.7-13.9 11.4-16.9 13-.2.1-.5.1-.7-.1l-.8-.7-3.9-3.7-.8-.7c-.2-.2-.2-.4-.1-.6 1.7-2.8 7.8-12.3 13.9-15.8 2.4-1.3 8.2-1.8 10.7-1.9.2 0 .3.1.4.2s.2.2.2.4c-.1 2.3-.6 7.7-2 9.9z" fill-rule="evenodd" transform="translate(113 122)"/><path d="m39.9 21.2c-1 0-1.9.4-2.6 1s-1.1 1.5-1.1 2.5c0 .9.4 1.8 1.1 2.5s1.6 1 2.6 1 1.9-.4 2.6-1 1.1-1.5 1.1-2.5c0-.9-.4-1.8-1.1-2.5-.7-.6-1.6-1-2.6-1zm-21.1 19.1c-1.2 0-2.3.4-3.1 1.2-1.6 1.5-1.6 5.8-1.6 6.6 0 .4.4.7.8.7h.1c1.6 0 5.5-.1 6.9-1.5.8-.8 1.3-1.8 1.3-2.9s-.5-2.1-1.3-2.9-1.9-1.2-3.1-1.2zm2 6c-.7.6-3 1-5.1 1 .1-1.8.4-4.1 1.1-4.8.5-.5 1.3-.8 2-.8.8 0 1.5.3 2 .8s.8 1.2.8 1.9c.1.8-.2 1.4-.8 1.9z"/></g></g></svg>