<svg height="60" width="120" xmlns="http://www.w3.org/2000/svg" xmlns:xlink="http://www.w3.org/1999/xlink"><defs><path id="a" d="m262.7 53.1h7.2v5.2l-.1 2.1h.1c1.4-4.3 5-7.7 9.6-7.7.7 0 1.4.1 1.4.1v7.4s-.8-.1-1.8-.1c-3.2 0-6.8 1.8-8.2 6.3-.5 1.5-.7 3.1-.7 4.9v11.9h-7.5z"/></defs><g stroke-width=".244173"><path d="m35.106548 29.574385c0 8.301851-6.739178 15.041-15.041065 15.041-8.301888 0-15.065483-6.714733-15.065483-15.041s6.739179-15.041 15.041066-15.041 15.065482 6.739149 15.065482 15.041" fill="#df6639"/><path d="m11.9101 32.480033 7.129856 5.640375v-5.615958l-3.613763-2.832396z" fill="#3e3e3d"/><path d="m11.9101 26.864075 3.516093 2.807979 3.613763-2.856813v-5.59154z" fill="#fff"/><path d="m11.9101 26.864075v5.615958l3.516093-2.807979z" fill="#222221"/><path d="m24.704773 29.672054-3.613763 2.832396v5.615958l7.105438-5.640375z" fill="#3e3e3d"/><path d="m28.196448 26.864075-7.105438-5.640374v5.59154l3.613763 2.856813z" fill="#fff"/><path d="m28.196448 26.864075-3.491675 2.807979 3.491675 2.807979z" fill="#222221"/></g><g fill="#3e3e3d" transform="matrix(.24417314 0 0 .24417207 5 14.533385)"><path d="m146.4 72.5s4.6 4.4 10.5 4.4c3.2 0 6.1-1.7 6.1-5.1 0-7.5-19.8-6.2-19.8-19.1 0-7 6-12.2 14.1-12.2 8.3 0 12.5 4.5 12.5 4.5l-3.3 6.2s-4-3.7-9.3-3.7c-3.5 0-6.3 2.1-6.3 5 0 7.5 19.8 5.6 19.8 19 0 6.7-5.1 12.3-13.8 12.3-9.3 0-14.5-5.7-14.5-5.7zm30.7-19.4h7.2v3.5l-.1 2.1h.1c1.5-3 5.1-6.3 9.8-6.3 4.6 0 7.6 2.1 8.8 6.2h.1c1.7-3.3 5.6-6.2 10.3-6.2 6.3 0 9.9 3.5 9.9 11.5v19.4h-7.5v-18c0-3.4-.7-6-4.1-6-3.8 0-6.4 3.1-7.3 6.9-.3 1.2-.4 2.5-.4 3.9v13.2h-7.5v-18c0-3.3-.5-6-4.1-6-3.9 0-6.4 3.1-7.4 6.9-.3 1.1-.4 2.5-.4 3.8v13.2h-7.5v-30.1zm69.3 11.3h1v-.4c0-4-2.5-5.3-5.8-5.3-4.3 0-8.3 2.9-8.3 2.9l-2.8-5.4s4.7-3.7 11.8-3.7c7.9 0 12.5 4.4 12.5 12v18.9h-6.9v-2.5c0-1.2.1-2.1.1-2.1h-.1c.1 0-2.3 5.3-9.2 5.3-5.4 0-10.2-3.4-10.2-9.4 0-9.7 13-10.3 17.9-10.3zm-5.7 13.7c4 0 6.8-4.3 6.8-7.9v-.7h-1.3c-3.8 0-10.1.5-10.1 4.7 0 2 1.5 3.9 4.6 3.9z"/><use height="100%" width="100%" xlink:href="#a"/><path d="m287.2 59.6h-3.9v-6h4.1v-8.7h7.3v8.7h6.9v6h-6.9v11.7c0 5 3.9 5.7 6 5.7.8 0 1.4-.1 1.4-.1v6.6s-.9.2-2.3.2c-4.2 0-12.5-1.2-12.5-11.4v-12.7zm22.2-18.3h14.3c13 0 21.4 7.7 21.4 20.9s-8.5 21.1-21.4 21.1h-14.3zm13.9 35.4c8.5 0 14-5 14-14.5 0-9.3-5.6-14.4-14-14.4h-6.3v28.9z"/><use height="100%" width="100%" x="89.199997" xlink:href="#a"/><path d="m390.5 64.4h1v-.4c0-4-2.5-5.3-5.8-5.3-4.3 0-8.3 2.9-8.3 2.9l-2.8-5.4s4.7-3.7 11.8-3.7c7.9 0 12.5 4.4 12.5 12v18.9h-6.9v-2.5c0-1.2.1-2.1.1-2.1h-.1c.1 0-2.3 5.3-9.2 5.3-5.4 0-10.2-3.4-10.2-9.4 0-9.7 13-10.3 17.9-10.3zm-5.8 13.7c4 0 6.8-4.3 6.8-7.9v-.7h-1.3c-3.8 0-10.1.5-10.1 4.7.1 2 1.6 3.9 4.6 3.9zm18.7-25h7.9l5.3 19.8c.4 1.6.6 3.2.6 3.2h.1l.7-3.2 5.6-19.8h6.7l5.6 19.8.7 3.2h.1s.2-1.6.7-3.2l5.3-19.8h7.8l-9.2 30.2h-8.3l-5.1-17.2c-.5-1.6-.8-3.3-.8-3.3h-.1s-.2 1.7-.7 3.3l-5.1 17.2h-8.4z"/></g></svg>